HIERARCHY
ROOT root
{
	OFFSET	0	13.1	24.9
	CHANNELS 6  Xposition Yposition Zposition Xrotation Yrotation Zrotation
	JOINT spine_1
	{
		OFFSET	0	9.99999	0
		CHANNELS 3  Xrotation Yrotation Zrotation
		JOINT spine_2
		{
			OFFSET	0	112	-10
			CHANNELS 3  Xrotation Yrotation Zrotation
			JOINT spine_3
			{
				OFFSET	0	206.5	19.3
				CHANNELS 3  Xrotation Yrotation Zrotation
				JOINT spine_4
				{
					OFFSET	0	110.4	14.6
					CHANNELS 3  Xrotation Yrotation Zrotation
					JOINT neck_1
					{
						OFFSET	0	71.8	-50.3
						CHANNELS 3  Xrotation Yrotation Zrotation
						JOINT neck_2
						{
							OFFSET	0	86.2	-25.8
							CHANNELS 3  Xrotation Yrotation Zrotation
							JOINT head_ee
							{
								OFFSET	0	179.8	-8.7
								CHANNELS 3  Xrotation Yrotation Zrotation
								End Site
								{
									OFFSET	1	0	0
								}
							}
						}
					}
					JOINT left_clavicle
					{
						OFFSET	-43.2	22.4	-70.8
						CHANNELS 3  Xrotation Yrotation Zrotation
						JOINT left_shoulder
						{
							OFFSET	-93.9	-5.79999	48.7
							CHANNELS 3  Xrotation Yrotation Zrotation
							JOINT left_elbow
							{
								OFFSET	-291.4	-30.8	15.2
								CHANNELS 3  Xrotation Yrotation Zrotation
								JOINT left_lowarm_twist
								{
									OFFSET	-110.7	-3.89999	13.6
									CHANNELS 3  Xrotation Yrotation Zrotation
									JOINT left_hand
									{
										OFFSET	-110.7	-3.89999	13.6
										CHANNELS 3  Xrotation Yrotation Zrotation
										JOINT left_ee
										{
											OFFSET	-80.8	-5.10001	12.1
											CHANNELS 3  Xrotation Yrotation Zrotation
											End Site
											{
												OFFSET	1	0	0
											}
										}
									}
								}
							}
						}
					}
					JOINT right_clavicle
					{
						OFFSET	43.2	22.4	-70.8
						CHANNELS 3  Xrotation Yrotation Zrotation
						JOINT right_shoulder
						{
							OFFSET	93.9	-5.79999	48.7
							CHANNELS 3  Xrotation Yrotation Zrotation
							JOINT right_elbow
							{
								OFFSET	291.4	-30.8	15.2
								CHANNELS 3  Xrotation Yrotation Zrotation
								JOINT right_lowarm_twist
								{
									OFFSET	110.7	-3.89999	13.6
									CHANNELS 3  Xrotation Yrotation Zrotation
									JOINT right_hand
									{
										OFFSET	110.7	-3.89999	13.6
										CHANNELS 3  Xrotation Yrotation Zrotation
										JOINT right_ee
										{
											OFFSET	80.8	-5.10001	12.1
											CHANNELS 3  Xrotation Yrotation Zrotation
											End Site
											{
												OFFSET	1	0	0
											}
										}
									}
								}
							}
						}
					}
				}
			}
		}
	}
	JOINT left_hip
	{
		OFFSET	-82.8	-127.5	0.300001
		CHANNELS 3  Xrotation Yrotation Zrotation
		JOINT left_knee
		{
			OFFSET	-28.2	-396.7	2.2
			CHANNELS 3  Xrotation Yrotation Zrotation
			JOINT left_ankle
			{
				OFFSET	-11.7	-411.3	35.4
				CHANNELS 3  Xrotation Yrotation Zrotation
				JOINT left_toes
				{
					OFFSET	0	-60	-88.6
					CHANNELS 3  Xrotation Yrotation Zrotation
					JOINT left_foot_ee
					{
						OFFSET	-22.5	-16.5	-42.2
						CHANNELS 3  Xrotation Yrotation Zrotation
						End Site
						{
							OFFSET	1	0	0
						}
					}
				}
			}
		}
	}
	JOINT right_hip
	{
		OFFSET	82.8	-127.5	0.300001
		CHANNELS 3  Xrotation Yrotation Zrotation
		JOINT right_knee
		{
			OFFSET	28.2	-396.7	2.2
			CHANNELS 3  Xrotation Yrotation Zrotation
			JOINT right_ankle
			{
				OFFSET	11.7	-411.3	35.4
				CHANNELS 3  Xrotation Yrotation Zrotation
				JOINT right_toes
				{
					OFFSET	0	-60	-88.6
					CHANNELS 3  Xrotation Yrotation Zrotation
					JOINT right_foot_ee
					{
						OFFSET	22.5	-16.5	-42.2
						CHANNELS 3  Xrotation Yrotation Zrotation
						End Site
						{
							OFFSET	1	0	0
						}
					}
				}
			}
		}
	}
}
MOTION
Frames: 14
Frame Time: 0.02
2795.56486284 688.501 -1643.39670624 19.947039753 63.6455542306 -13.3447284667 -2.54807 -0.479585 -0.463809 -2.54806 -0.4491 -0.493386 -2.54398 -0.309459 -0.591062 -2.54424 -0.398921 -0.534773 -10.5395 -5.3038 5.71481 -10.5089 -13.8121 4.19061 -0.0 0.0 -0.0 -0.30446 10.7216 0.749221 22.6095 -18.4085 71.8528 1.07352 -28.003 0.267697 -4.67108 -0.187816 0.566616 -2.79496 17.3342 -10.01 -0.0 0.0 -0.0 7.07739 25.5522 -12.443 -12.7848 20.9105 -66.0433 1.28092 32.3949 -0.372095 55.9811 1.42948 6.72507 1.09243 -6.55718 -9.91207 0.0 0.0 0.0 7.6385 28.4037 -11.7229 -28.5347 0.0973966 4.33289 37.3957 3.61674 -4.62707 -4.38952 0.0 0.0 -0.0 0.0 -0.0 -2.39661 32.9195 -12.299 -37.3903 0.309143 -5.62946 33.5165 -17.7873 4.34717 -0.601852 0.0 0.0 0.0 0.0 0.0 
2787.11928294 689.068 -1633.58378627 21.1096839154 65.0113554874 -14.7150637211 -2.50237 -0.585659 -0.471287 -2.50242 -0.554483 -0.507599 -2.4973 -0.408325 -0.631171 -2.4975 -0.502881 -0.558765 -11.9302 -5.07837 5.82205 -11.9228 -13.3766 4.18112 -0.0 0.0 -0.0 -0.115086 9.61381 0.939733 24.5084 -18.895 71.7557 1.13605 -29.3685 0.297714 -4.86622 -0.196664 0.589945 -2.72521 16.2345 -10.1631 -0.0 0.0 -0.0 6.76966 24.5687 -11.8666 -13.8949 20.9298 -66.3364 1.23928 31.5445 -0.350045 55.753 1.41075 6.70263 1.14436 -6.58734 -10.2682 0.0 0.0 0.0 7.16988 29.0073 -12.1703 -28.7477 0.0899908 4.36474 37.2756 4.16199 -4.61495 -4.30494 0.0 0.0 -0.0 0.0 -0.0 0.604365 33.2385 -14.1196 -37.7297 0.328687 -5.67782 34.3799 -17.8614 4.43761 -0.545051 0.0 0.0 0.0 0.0 0.0 
2774.59337016 689.465 -1617.25358233 23.1591127025 66.4409918434 -17.5119184589 -2.5344 -0.57164 -0.468957 -2.53444 -0.540641 -0.504381 -2.52947 -0.395392 -0.624785 -2.52968 -0.489102 -0.554501 -13.4949 -5.07169 6.26959 -13.5098 -13.5385 4.4223 -0.0 0.0 -0.0 0.0251901 8.76443 1.08343 25.8092 -19.3286 71.9257 1.21968 -31.1389 0.339852 -5.23539 -0.213622 0.633995 -2.63252 14.9048 -10.2821 -0.0 0.0 -0.0 6.19553 23.0086 -10.7609 -15.5725 20.1484 -66.5826 1.16153 29.9145 -0.310312 55.5511 1.39425 6.68271 1.20107 -6.55026 -10.6307 0.0 0.0 0.0 4.64607 30.0487 -10.373 -28.6501 0.0933981 4.35015 37.4117 3.89617 -4.62795 -3.82455 0.0 0.0 -0.0 0.0 -0.0 3.73606 34.2478 -13.8715 -37.8599 0.336261 -5.69634 35.1918 -18.3155 4.52814 -0.515544 0.0 0.0 0.0 0.0 0.0 
2763.08575022 690.18 -1605.41696662 26.8247320177 67.6374863096 -21.4546313033 -2.67858 -0.317403 -0.528378 -2.67847 -0.283138 -0.547504 -2.6755 -0.133811 -0.601681 -2.67593 -0.227155 -0.572999 -15.7972 -5.61762 5.47732 -15.902 -13.937 3.20715 -0.0 0.0 -0.0 0.122839 8.02681 1.16963 27.1186 -19.5917 71.9218 1.35178 -33.8058 0.410794 -5.08749 -0.206794 0.61636 -2.44274 13.1885 -9.9651 -0.0 0.0 -0.0 5.39524 20.5187 -9.24581 -19.8917 18.9172 -68.2037 0.955805 25.3361 -0.214845 54.7255 1.32749 6.60065 1.32412 -6.08251 -11.2717 0.0 0.0 0.0 0.70155 31.6144 -9.49699 -26.4367 0.163972 4.01782 37.7884 3.67258 -4.66286 -3.66813 0.0 0.0 -0.0 0.0 -0.0 9.19219 32.9053 -13.9909 -38.7467 0.388963 -5.82203 35.9702 -18.1833 4.60392 -0.605026 0.0 0.0 0.0 0.0 0.0 
2740.75841155 692.456 -1594.87443355 27.6657459899 69.1103148425 -21.818139451 -2.46282 -0.135518 -1.08153 -2.46218 -0.0664269 -1.08796 -2.46017 0.209846 -1.0696 -2.46176 0.0383004 -1.08931 -17.236 -5.26785 6.25902 -17.3384 -13.5957 3.90322 -0.0 0.0 -0.0 0.589896 7.1975 1.90795 28.1224 -20.0744 71.3252 1.59087 -38.2378 0.551509 -5.78416 -0.239353 0.699275 -1.97255 6.65941 -10.1342 -0.0 0.0 -0.0 6.12825 18.2462 -11.0219 -24.4447 17.421 -67.608 0.485861 13.5328 -0.057647 53.7195 1.24777 6.49938 1.03644 -7.06391 -9.73621 0.0 0.0 0.0 -2.65628 33.6337 -8.44434 -20.6245 0.287693 3.13485 39.1434 2.78762 -4.78666 -3.99665 0.0 0.0 -0.0 0.0 -0.0 12.659 28.2388 -13.5055 -38.1755 0.354793 -5.74116 37.5405 -17.6121 4.74734 -0.685086 0.0 0.0 0.0 0.0 0.0 
2730.77226154 688.924 -1590.01926665 29.5317415498 69.7053719296 -23.9935355813 -2.53139 -0.129523 -1.27823 -2.53048 -0.0479307 -1.28388 -2.52839 0.278622 -1.2542 -2.53057 0.0770637 -1.28246 -17.9849 -4.66574 5.69285 -18.0741 -12.0629 3.52508 -0.0 0.0 -0.0 0.298831 6.95398 1.36111 29.1651 -19.6138 71.8453 1.75877 -41.0601 0.658674 -6.59048 -0.278294 0.794744 -2.12267 6.25823 -11.3258 -0.0 0.0 -0.0 5.36011 16.6564 -9.4891 -25.7571 17.0498 -68.4716 0.658906 18.0769 -0.104815 53.5355 1.23338 6.48071 1.14301 -7.23177 -10.5057 0.0 0.0 0.0 -3.07328 35.1954 -8.3393 -20.3876 0.290829 3.09864 40.6559 3.47689 -4.91555 -4.31434 0.0 0.0 -0.0 0.0 -0.0 14.7182 26.5684 -13.4988 -37.1302 0.294361 -5.59233 37.7711 -17.8144 4.77315 -1.15069 0.0 0.0 0.0 0.0 0.0 
2722.63747185 685.981 -1586.82041981 29.9939843194 69.6962419241 -24.0635883813 -2.48498 -0.0837326 -1.49129 -2.48374 0.0113212 -1.4936 -2.48274 0.387918 -1.4424 -2.48561 0.155276 -1.48555 -20.6466 -4.36698 6.0354 -20.7483 -11.4194 3.72445 -0.0 0.0 -0.0 0.704071 7.00605 2.09207 28.8394 -18.4526 70.308 1.96181 -44.1765 0.796204 -6.55946 -0.276771 0.791083 -2.13592 5.77473 -11.649 -0.0 0.0 -0.0 5.11248 15.5682 -9.04188 -26.1995 16.8135 -68.4621 0.650694 17.866 -0.102281 53.3416 1.21829 6.46099 1.24841 -7.08424 -11.1487 0.0 0.0 0.0 -5.09717 36.0077 -7.94067 -18.3703 0.311474 2.78981 39.1103 2.64532 -4.78423 -4.60376 0.0 0.0 -0.0 0.0 -0.0 17.3698 25.7657 -14.0535 -35.9754 0.230775 -5.42666 36.5962 -17.441 4.65269 -0.846855 0.0 0.0 0.0 0.0 0.0 
2704.17338122 684.018 -1583.24574493 31.7068356362 69.9350670331 -25.7823227601 -2.35643 -0.0849497 -1.41111 -2.35532 0.0050061 -1.41366 -2.35432 0.358557 -1.36745 -2.3569 0.138116 -1.40691 -22.8813 -3.21369 6.87503 -22.9096 -9.34935 4.87448 -0.0 0.0 -0.0 0.970531 5.58811 2.43017 28.9832 -17.1245 68.6985 2.23673 -47.9266 0.99424 -7.55599 -0.32669 0.908338 -2.0915 3.5568 -12.42 -0.0 0.0 -0.0 5.55441 15.1048 -10.0209 -27.72 16.3589 -68.4706 0.533118 14.7937 -0.0692107 53.2375 1.21021 6.45038 1.26607 -8.77725 -11.9022 0.0 0.0 0.0 -9.74113 38.6246 -6.37714 -13.0607 0.313763 1.97546 40.3154 0.702944 -4.89816 -4.2122 0.0 0.0 -0.0 0.0 -0.0 20.1882 20.6148 -13.3754 -29.6224 -0.0583425 -4.49526 35.0088 -16.7979 4.48448 -1.48456 0.0 0.0 0.0 0.0 0.0 
2704.08261958 684.018 -1583.74601761 31.6198465169 69.8834762419 -25.6896973839 -2.35643 -0.0849497 -1.41111 -2.35532 0.0050061 -1.41366 -2.35432 0.358557 -1.36745 -2.3569 0.138116 -1.40691 -22.8813 -3.21369 6.87503 -22.9096 -9.34935 4.87448 -0.0 0.0 -0.0 0.970531 5.58811 2.43017 28.9832 -17.1245 68.6985 2.23673 -47.9266 0.99424 -7.55599 -0.32669 0.908338 -2.0915 3.5568 -12.42 -0.0 0.0 -0.0 5.55441 15.1048 -10.0209 -27.72 16.3589 -68.4706 0.533118 14.7937 -0.0692107 53.2375 1.21021 6.45038 1.26607 -8.77725 -11.9022 0.0 0.0 0.0 -9.74113 38.6246 -6.37714 -13.0607 0.313763 1.97546 40.3154 0.702944 -4.89816 -4.2122 0.0 0.0 -0.0 0.0 -0.0 20.1882 20.6148 -13.3754 -29.6224 -0.0583425 -4.49526 35.0088 -16.7979 4.48448 -1.48456 0.0 0.0 0.0 0.0 0.0 
2697.95201126 685.338 -1585.94982664 31.1649355948 70.0838473246 -24.889845273 -2.38249 -0.0261617 -1.4977 -2.38125 0.0691832 -1.49633 -2.38186 0.442094 -1.43122 -2.38466 0.210538 -1.48306 -23.4376 -1.92063 7.02558 -23.3897 -6.85492 5.60572 -0.0 0.0 -0.0 1.11034 5.12058 2.63979 28.6925 -16.7376 67.9714 2.46718 -50.7014 1.16904 -8.35632 -0.368256 1.00188 -2.05911 2.00941 -12.9386 -0.0 0.0 -0.0 5.65647 15.0744 -10.2414 -27.9785 16.2028 -68.2823 0.437227 12.2211 -0.0468078 53.3465 1.21867 6.46149 1.1205 -9.60522 -11.252 0.0 0.0 0.0 -11.2219 39.7687 -5.78481 -9.88949 0.279154 1.49017 40.0711 0.284053 -4.88003 -4.10892 0.0 0.0 -0.0 0.0 -0.0 21.2493 18.8076 -13.0382 -23.6808 -0.233809 -3.60068 36.1576 -15.688 4.58208 -1.8378 0.0 0.0 0.0 0.0 0.0 
2677.35427093 681.491 -1589.5779038 29.3511525038 71.1555011777 -23.0466284692 -2.46154 -0.456427 -1.95501 -2.45948 -0.331125 -1.98007 -2.44527 0.177917 -1.99966 -2.45083 -0.14006 -2.00267 -24.5762 -0.728924 7.43791 -24.4655 -4.59053 6.54907 -0.0 0.0 -0.0 1.60112 4.01492 3.4419 27.8622 -13.4259 67.0335 2.81577 -54.3522 1.44584 -6.64995 -0.281219 0.801764 -1.90948 0.332855 -12.706 -0.0 0.0 -0.0 5.90538 15.1675 -10.7679 -27.7312 16.6136 -67.8555 0.201129 5.68993 -0.00999507 53.5508 1.23457 6.48226 0.598878 -10.095 -8.03947 0.0 0.0 0.0 -13.0506 42.2381 -4.37035 -5.03731 0.174379 0.753163 40.2627 -0.0771193 -4.89901 -4.2624 0.0 0.0 -0.0 0.0 -0.0 22.4562 16.4613 -13.0048 -14.7801 -0.321286 -2.23915 38.7561 -14.1505 4.80761 -2.52975 0.0 0.0 0.0 0.0 0.0 
2642.78491507 671.935 -1592.30692777 27.3533063573 71.2830609726 -20.5002469346 -2.61753 -0.527483 -2.27098 -2.61475 -0.381944 -2.29993 -2.59557 0.215337 -2.32145 -2.60306 -0.153893 -2.32633 -23.812 0.803997 6.27909 -23.7048 -1.22023 6.21266 -0.0 0.0 -0.0 2.45819 2.824 4.94527 26.7824 -10.8771 65.4909 3.20376 -57.7722 1.76788 -6.2654 -0.262433 0.75632 -1.74385 -2.30744 -12.788 -0.0 0.0 -0.0 5.85415 14.8012 -10.6833 -27.7441 16.2681 -67.7416 0.23432 6.62116 -0.0135542 53.5028 1.23083 6.47739 0.160769 -10.8676 -5.52198 0.0 0.0 0.0 -15.0748 42.7519 -4.40984 -3.7703 0.136769 0.562356 40.3126 -0.535973 -4.90683 -3.42256 0.0 0.0 -0.0 0.0 -0.0 23.5949 15.5681 -13.8154 -4.46173 -0.157817 -0.666382 40.8495 -12.0411 4.96921 -2.85068 0.0 0.0 0.0 0.0 0.0 
2578.66789929 654.354 -1590.58035014 31.9235471353 73.3848508329 -26.0936679003 -2.67962 -0.499919 -2.31945 -2.67669 -0.351355 -2.34654 -2.65831 0.259388 -2.35847 -2.66605 -0.116235 -2.36984 -21.807 2.24465 6.67804 -21.6828 1.15021 7.19328 -0.0 0.0 -0.0 2.49313 3.13004 5.03265 23.8404 -7.98314 67.2081 3.55414 -60.389 2.06854 -5.69009 -0.234897 0.688102 -1.84841 -1.97945 -13.3583 -0.0 0.0 -0.0 6.13074 13.9035 -11.3339 -26.97 16.5506 -68.0163 0.392477 11.0025 -0.0377999 53.7641 1.25127 6.5039 -0.168151 -10.6983 -3.35003 0.0 0.0 0.0 -18.3121 42.9127 -6.02916 -8.34959 0.252672 1.25537 41.2364 -1.70621 -4.99508 1.75953 -0.0 -0.0 -0.0 0.0 -0.0 23.8193 17.0289 -14.7932 -2.50771 -0.095099 -0.373071 37.7297 -9.97526 4.67157 -1.07594 0.0 0.0 0.0 0.0 0.0 
2577.84050268 654.354 -1597.1486429 30.8450823506 72.8482687958 -24.9666402331 -2.67962 -0.499919 -2.31945 -2.67669 -0.351355 -2.34654 -2.65831 0.259388 -2.35847 -2.66605 -0.116235 -2.36984 -21.807 2.24465 6.67804 -21.6828 1.15021 7.19328 -0.0 0.0 -0.0 2.49313 3.13004 5.03265 23.8404 -7.98314 67.2081 3.55414 -60.389 2.06854 -5.69009 -0.234897 0.688102 -1.84841 -1.97945 -13.3583 -0.0 0.0 -0.0 6.13074 13.9035 -11.3339 -26.97 16.5506 -68.0163 0.392477 11.0025 -0.0377999 53.7641 1.25127 6.5039 -0.168151 -10.6983 -3.35003 0.0 0.0 0.0 -18.3121 42.9127 -6.02916 -8.34959 0.252672 1.25537 41.2364 -1.70621 -4.99508 1.75953 -0.0 -0.0 -0.0 0.0 -0.0 23.8193 17.0289 -14.7932 -2.50771 -0.095099 -0.373071 37.7297 -9.97526 4.67157 -1.07594 0.0 0.0 0.0 0.0 0.0 
